<?xml version="1.0" standalone="no"?>
<!DOCTYPE svg PUBLIC "-//W3C//DTD SVG 1.1//EN" "http://www.w3.org/Graphics/SVG/1.1/DTD/svg11.dtd" >
<svg xmlns="http://www.w3.org/2000/svg">
<metadata>
Created by FontForge 20120731 at Sun Dec 13 11:18:53 2015
 By Ads
</metadata>
<defs>
<font id="iconfont" horiz-adv-x="1024" >
  <font-face 
    font-family="iconfont"
    font-weight="500"
    font-stretch="normal"
    units-per-em="1024"
    panose-1="2 0 6 3 0 0 0 0 0 0"
    ascent="896"
    descent="-128"
    x-height="792"
    bbox="-0.025 -128.025 1829 896.25"
    underline-thickness="50"
    underline-position="-100"
    unicode-range="U+0078-E66C"
  />
<missing-glyph horiz-adv-x="374" 
d="M34 0v682h272v-682h-272zM68 34h204v614h-204v-614z" />
    <glyph glyph-name=".notdef" horiz-adv-x="374" 
d="M34 0v682h272v-682h-272zM68 34h204v614h-204v-614z" />
    <glyph glyph-name=".null" horiz-adv-x="0" 
 />
    <glyph glyph-name="nonmarkingreturn" horiz-adv-x="341" 
 />
    <glyph glyph-name="x" unicode="x" horiz-adv-x="1001" 
d="M281 543q-27 -1 -53 -1h-83q-18 0 -36.5 -6t-32.5 -18.5t-23 -32t-9 -45.5v-76h912v41q0 16 -0.5 30t-0.5 18q0 13 -5 29t-17 29.5t-31.5 22.5t-49.5 9h-133v-97h-438v97zM955 310v-52q0 -23 0.5 -52t0.5 -58t-10.5 -47.5t-26 -30t-33 -16t-31.5 -4.5q-14 -1 -29.5 -0.5
t-29.5 0.5h-32l-45 128h-439l-44 -128h-29h-34q-20 0 -45 1q-25 0 -41 9.5t-25.5 23t-13.5 29.5t-4 30v167h911zM163 247q-12 0 -21 -8.5t-9 -21.5t9 -21.5t21 -8.5q13 0 22 8.5t9 21.5t-9 21.5t-22 8.5zM316 123q-8 -26 -14 -48q-5 -19 -10.5 -37t-7.5 -25t-3 -15t1 -14.5
t9.5 -10.5t21.5 -4h37h67h81h80h64h36q23 0 34 12t2 38q-5 13 -9.5 30.5t-9.5 34.5q-5 19 -11 39h-368zM336 498v228q0 11 2.5 23t10 21.5t20.5 15.5t34 6h188q31 0 51.5 -14.5t20.5 -52.5v-227h-327z" />
    <glyph glyph-name="uniE601" unicode="&#xe601;" 
d="M972 -44h-84v41h-42v-41h-83v41h-42v-41h-83v41h-42v-41h-84v41h-42v-41h-83v41h-42v-41h-184l220 132l109 318l162 -284l314 523l-72 43l-240 -401l-183 322l-159 -465l-218 -131v862h-84v-1003h1004v125h-42v-41zM972 875h42v-42h-42v42zM846 875h42v-42h-42v42z
M721 875h42v-42h-42v42zM596 875h42v-42h-42v42zM470 875h42v-42h-42v42zM345 875h42v-42h-42v42zM219 875h42v-42h-42v42zM94 875h42v-42h-42v42zM972 750h42v-42h-42v42zM846 750h42v-42h-42v42zM721 750h42v-42h-42v42zM596 750h42v-42h-42v42zM470 750h42v-42h-42v42z
M345 750h42v-42h-42v42zM219 750h42v-42h-42v42zM94 750h42v-42h-42v42zM972 624h42v-41h-42v41zM721 624h42v-41h-42v41zM596 624h42v-41h-42v41zM345 624h42v-41h-42v41zM219 624h42v-41h-42v41zM94 624h42v-41h-42v41zM972 499h42v-42h-42v42zM596 499h42v-42h-42v42z
M345 499h42v-42h-42v42zM219 499h42v-42h-42v42zM94 499h42v-42h-42v42zM972 374h42v-42h-42v42zM846 374h42v-42h-42v42zM219 374h42v-42h-42v42zM94 374h42v-42h-42v42zM972 248h42v-42h-42v42zM846 248h42v-42h-42v42zM470 248h42v-42h-42v42zM219 248h42v-42h-42v42z
M94 248h42v-42h-42v42zM972 123h42v-42h-42v42zM846 123h42v-42h-42v42zM721 123h42v-42h-42v42zM470 123h42v-42h-42v42zM94 123h42v-42h-42v42z" />
    <glyph glyph-name="uniE602" unicode="&#xe602;" 
d="M950 428q-285 240 -410 351l-28 24l-28 -24l-3 -3q-45 -39 -94 -81t-151 -129t-164 -139q-29 -26 -29 -64q0 -23 11.5 -43t31 -31.5t42.5 -11.5h43v-256q0 -35 25 -60t60 -25h512q35 0 60 25t25 60v256h43q35 0 60 25t25 61q0 40 -31 65zM597 21h-170v214h170v-214z
M768 363v-342h-128v256h-256v-256h-128v342h-128q126 105 384 327q258 -222 384 -327h-128z" />
    <glyph glyph-name="uniE603" unicode="&#xe603;" 
d="M805 499q17 0 29 -12.5t12 -29.5v-83q0 -63 -22.5 -121t-61.5 -101.5t-93 -73t-115 -36.5v-86h125q17 0 29.5 -12.5t12.5 -29.5t-12.5 -29.5t-29.5 -12.5h-334q-17 0 -29.5 12.5t-12.5 29.5t12.5 29.5t29.5 12.5h125v86q-61 7 -115 36.5t-93 73t-61.5 101.5t-22.5 121v83
q0 17 12 29.5t29.5 12.5t29.5 -12.5t12 -29.5v-83q0 -69 34 -126.5t91.5 -91t125.5 -33.5t125.5 33.5t91.5 91t34 126.5v83q0 17 12 29.5t30 12.5zM512 875q69 0 118 -49t49 -118v-334q0 -70 -49 -119t-118 -49t-118 49t-49 119v334q0 69 49 118t118 49zM512 792
q-35 0 -59.5 -24.5t-24.5 -59.5v-334q0 -35 24.5 -59.5t59.5 -24.5t59.5 24.5t24.5 59.5v334q0 35 -24.5 59.5t-59.5 24.5z" />
    <glyph glyph-name="uniE604" unicode="&#xe604;" 
d="M512 714q135 0 263 -47.5t232 -139.5q15 -13 15 -33q0 -17 -11 -29l-2 -2q-13 -13 -31 -13q-17 0 -29 11q-92 81 -205 123t-232 42t-232 -42t-205 -123q-12 -11 -29 -11q-21 0 -33 15q-11 12 -11 29q0 20 14 33q105 92 233 139.5t263 47.5zM512 186q60 0 111 -30
q11 -7 16.5 -17t6 -21.5t-6.5 -22.5q-3 -5 -7 -9q-12 -12 -31 -12q-12 0 -22 5q-31 19 -67 19q-35 0 -67 -19q-11 -6 -22 -6q-25 0 -38 22q-7 10 -7 22q0 25 22 38q52 31 112 31zM512 450q83 0 162 -27.5t145 -81.5q16 -13 16 -34q0 -16 -10 -28q-2 -3 -3 -4
q-13 -12 -31 -12q-16 0 -28 10q-54 44 -118.5 66.5t-132.5 22.5t-132.5 -22.5t-118.5 -66.5q-12 -10 -28 -10q-21 0 -34 16q-10 12 -10 28q0 21 16 34q66 54 145 81.5t162 27.5z" />
    <glyph glyph-name="uniE605" unicode="&#xe605;" 
d="M427 832q78 0 149 -30.5t122.5 -82t82 -122.5t30.5 -149q0 -67 -22 -128.5t-62 -111.5l242 -242q12 -12 12 -30t-12 -30.5t-30 -12.5t-31 13l-242 242q-50 -40 -111 -62t-128 -22q-78 0 -149.5 30.5t-122.5 82t-81.5 122.5t-30.5 149t30.5 149t81.5 122.5t122.5 82
t149.5 30.5zM426.5 747q-60.5 0 -116 -24t-95.5 -64t-63.5 -95t-23.5 -116t23.5 -116t63.5 -95t95.5 -64t116 -24t116 24t95.5 64t63.5 95t23.5 116t-23.5 116t-63.5 95t-95.5 64t-116 24z" />
    <glyph glyph-name="uniE606" unicode="&#xe606;" 
d="M427 832q78 0 149 -30.5t122.5 -82t82 -122.5t30.5 -149q0 -67 -22 -128.5t-62 -111.5l242 -242q12 -12 12 -30t-12 -30.5t-30 -12.5t-31 13l-242 242q-50 -40 -111 -62t-128 -22q-78 0 -149.5 30.5t-122.5 82t-81.5 122.5t-30.5 149t30.5 149t81.5 122.5t122.5 82
t149.5 30.5zM426.5 747q-60.5 0 -116 -24t-95.5 -64t-63.5 -95t-23.5 -116t23.5 -116t63.5 -95t95.5 -64t116 -24t116 24t95.5 64t63.5 95t23.5 116t-23.5 116t-63.5 95t-95.5 64t-116 24zM299 491h256q17 0 29.5 -12.5t12.5 -30.5t-12.5 -30.5t-29.5 -12.5h-256
q-18 0 -30.5 12.5t-12.5 30.5t12.5 30.5t30.5 12.5z" />
    <glyph glyph-name="uniE607" unicode="&#xe607;" horiz-adv-x="1152" 
d="M16 -127q6 -2 12 1.5t8 9.5q6 25 20 47t28.5 37.5t37.5 29.5t40 22t43 16.5t40 11.5l38 10q35 8 46 13q42 18 71.5 46t41 52.5t17.5 51.5q1 9 -6 15q-73 63 -113 173q-1 3 -3 5q-52 58 -52 106q0 26 21 39q7 5 8 13q6 122 82.5 206.5t183.5 85.5h3q53 -1 101 -24.5
t83 -63.5t56 -95t23 -116q0 -3 1.5 -6t4.5 -5q5 -5 8 -10t4.5 -11t1.5 -13q0 -40 -38 -89q-2 -3 -3 -5q-19 -61 -52 -112.5t-74 -84.5q-3 -2 -4.5 -6.5t-1.5 -8.5q20 -102 130 -150q11 -5 49 -13q24 -5 37.5 -8t39.5 -11t43 -15.5t39 -21t37 -28.5t28.5 -36.5t19.5 -46.5
q4 -12 16 -12l4 1q4 1 7 4t4 7t0 8q-7 26 -18.5 48t-28 39t-33 30.5t-39 24t-39 18t-40.5 14t-36.5 9.5t-33.5 8q-13 2 -19 3.5t-13 3.5t-11 4q-90 39 -109 117q16 14 31.5 31.5t29.5 37t26 41t22.5 45t18.5 48.5q21 27 32 54.5t11 51.5q0 32 -20 53q-6 135 -91 228t-204 95
h-5q-46 0 -89 -16t-78.5 -44.5t-63.5 -67t-44.5 -87t-19.5 -100.5q-30 -22 -30 -61q0 -60 58 -125q20 -53 49 -98.5t65 -78.5q-6 -26 -20.5 -48t-36.5 -39.5t-52 -30.5q-3 -1 -7 -2.5t-10 -3t-11 -2.5l-13 -3q-24 -6 -39 -10t-43 -13t-47 -18t-44 -25t-42 -33.5t-32 -43
t-23 -54.5q-3 -14 11 -19z" />
    <glyph glyph-name="uniE608" unicode="&#xe608;" horiz-adv-x="1152" 
d="M711 233q-8 1 -14 -5q-5 -6 -4 -14q20 -102 130 -150q11 -5 49 -13q21 -4 32.5 -7t34 -9t37.5 -12.5t35.5 -16t34.5 -21t29 -26.5t25 -34t16 -41q4 -12 16 -12q2 0 4 1q6 1 9.5 7t1.5 12q-7 29 -22.5 54t-32 42t-41.5 32.5t-44 24t-47 17t-42.5 12t-38.5 9.5
q-35 7 -43 11q-83 35 -106 105q43 -3 82 1t62.5 11t44 17t26.5 15t10 8q6 5 5 13.5t-8 12.5q-88 50 -88 289q0 137 -81.5 232.5t-199.5 97.5h-5q-47 0 -91 -16.5t-80 -46.5t-63 -70t-41.5 -89t-14.5 -102q0 -239 -88 -289q-7 -4 -8 -12.5t6 -13.5q3 -3 7.5 -6t17.5 -11
t26.5 -14t34.5 -13.5t40.5 -10.5t45.5 -5t50 4q-24 -66 -104 -101q-5 -2 -14.5 -4.5t-26.5 -6.5q-25 -6 -39.5 -9.5t-42.5 -13t-47 -18.5t-44 -25t-42 -33.5t-32.5 -43t-22.5 -54.5q-2 -6 1.5 -12t9.5 -7.5t12 2t8 9.5q6 25 20 47t28.5 37.5t37.5 29.5t40 22t43 16.5
t40 11.5l38 10q35 8 46 13q62 27 91.5 67t38.5 83q0 4 -1 8t-4 6q-7 7 -16 4q-25 -8 -51 -9.5t-47 2t-42.5 10.5t-35 13.5t-26.5 14.5q24 20 41 52.5t25 62.5t12.5 71.5t5 62.5t0.5 53q0 121 76 206t184 86h2h1q53 -1 99 -24t79 -62.5t52 -94.5t19 -117q0 -27 0.5 -44
t2.5 -50.5t7.5 -59t14 -55t24 -53.5t35.5 -41q-79 -45 -205 -30z" />
    <glyph glyph-name="uniE609" unicode="&#xe609;" 
d="M512 832q96 0 182.5 -37t149.5 -100t100 -150t37 -182.5t-37 -182.5t-100 -149.5t-149.5 -100t-182.5 -37.5t-182.5 37.5t-149.5 100t-100 149.5t-37 182.5t37 182.5t100 150t149.5 100t182.5 37zM512 747q-78 0 -149 -30.5t-122.5 -82t-82 -122.5t-30.5 -149
t30.5 -149.5t82 -122.5t122.5 -81.5t149 -30.5t149 30.5t122.5 81.5t82 122.5t30.5 149.5t-30.5 149t-82 122.5t-122.5 82t-149 30.5zM512 576q18 0 30.5 -12.5t12.5 -30.5v-128h128q17 0 29.5 -12.5t12.5 -30t-12.5 -30t-29.5 -12.5h-128v-128q0 -18 -12.5 -30.5
t-30.5 -12.5t-30.5 12.5t-12.5 30.5v128h-128q-17 0 -29.5 12.5t-12.5 30t12.5 30t29.5 12.5h128v128q0 18 12.5 30.5t30.5 12.5z" />
    <glyph glyph-name="uniE60A" unicode="&#xe60a;" 
d="M512 832q96 0 182.5 -37t149.5 -100t100 -150t37 -182.5t-37 -182.5t-100 -149.5t-149.5 -100t-182.5 -37.5t-182.5 37.5t-149.5 100t-100 149.5t-37 182.5t37 182.5t100 150t149.5 100t182.5 37zM512 747q-78 0 -149 -30.5t-122.5 -82t-82 -122.5t-30.5 -149
t30.5 -149.5t82 -122.5t122.5 -81.5t149 -30.5t149 30.5t122.5 81.5t82 122.5t30.5 149.5t-30.5 149t-82 122.5t-122.5 82t-149 30.5zM341 405h342q17 0 29.5 -12.5t12.5 -30t-12.5 -30t-29.5 -12.5h-342q-17 0 -29.5 12.5t-12.5 30t12.5 30t29.5 12.5z" />
    <glyph glyph-name="uniE60B" unicode="&#xe60b;" 
d="M171 832h682q53 0 90.5 -37.5t37.5 -90.5v-683q0 -53 -37.5 -90.5t-90.5 -37.5h-682q-53 0 -90.5 37.5t-37.5 90.5v683q0 53 37.5 90.5t90.5 37.5zM853 747h-682q-18 0 -30.5 -12.5t-12.5 -30.5v-683q0 -17 12.5 -29.5t30.5 -12.5h682q18 0 30.5 12.5t12.5 29.5v683
q0 18 -12.5 30.5t-30.5 12.5zM512 576q18 0 30.5 -12.5t12.5 -30.5v-128h128q17 0 29.5 -12.5t12.5 -30t-12.5 -30t-29.5 -12.5h-128v-128q0 -18 -12.5 -30.5t-30.5 -12.5t-30.5 12.5t-12.5 30.5v128h-128q-17 0 -29.5 12.5t-12.5 30t12.5 30t29.5 12.5h128v128
q0 18 12.5 30.5t30.5 12.5z" />
    <glyph glyph-name="uniE60C" unicode="&#xe60c;" 
d="M171 832h682q53 0 90.5 -37.5t37.5 -90.5v-683q0 -53 -37.5 -90.5t-90.5 -37.5h-682q-53 0 -90.5 37.5t-37.5 90.5v683q0 53 37.5 90.5t90.5 37.5zM853 747h-682q-18 0 -30.5 -12.5t-12.5 -30.5v-683q0 -17 12.5 -29.5t30.5 -12.5h682q18 0 30.5 12.5t12.5 29.5v683
q0 18 -12.5 30.5t-30.5 12.5zM341 405h342q17 0 29.5 -12.5t12.5 -30t-12.5 -30t-29.5 -12.5h-342q-17 0 -29.5 12.5t-12.5 30t12.5 30t29.5 12.5z" />
    <glyph glyph-name="uniE60D" unicode="&#xe60d;" 
d="M512 832q-185 0 -316.5 -131.5t-131.5 -316.5t131.5 -316.5t316.5 -131.5t316.5 131.5t131.5 316.5t-131.5 316.5t-316.5 131.5zM512 -32q-172 0 -294 122t-122 294t122 294t294 122t294 -122t122 -294t-122 -294t-294 -122zM272 896q-99 0 -169.5 -70.5t-70.5 -169.5
v-34q0 -4 2 -8t6 -6t8 -2t8 2t6 6t2 8v34q0 86 61 147t147 61h28q7 0 11.5 4.5t4.5 11.5t-4.5 11.5t-11.5 4.5h-28zM748 896h-28q-7 0 -11.5 -4.5t-4.5 -11.5t4.5 -11.5t11.5 -4.5h28q86 0 147 -61t61 -147v-34q0 -4 2 -8t6 -6t8 -2q7 0 11.5 4.5t4.5 11.5v34
q0 99 -70.5 169.5t-169.5 70.5zM512 375v223q0 4 -2 8t-6 6t-8 2q-7 0 -11.5 -5t-4.5 -11v-230q0 -7 5 -11l157 -158q1 -1 3 -2t4 -1.5t4 -0.5q7 0 11.5 4.5t4.5 11t-4 11.5zM93 -122l96 128q9 13 -3 23q-4 2 -8 2.5t-8 -1t-7 -4.5l-96 -128q-9 -13 3 -23q5 -3 10 -3
q8 0 13 6zM861 26q-4 5 -10.5 6t-12.5 -3q-12 -10 -3 -23l96 -128q5 -6 13 -6q3 0 5 1t5 2q12 10 3 23z" />
    <glyph glyph-name="uniE60E" unicode="&#xe60e;" 
d="M896 736h-768q-53 0 -90.5 -37.5t-37.5 -90.5v-416q0 -53 37.5 -90.5t90.5 -37.5h768q53 0 90.5 37.5t37.5 90.5v416q0 53 -37.5 90.5t-90.5 37.5zM64 568l224 -168l-224 -168v336zM960 192q0 -26 -19 -45t-45 -19h-768q-26 0 -45 19t-19 45l251 188l139 -105
q13 -9 28 -14t30 -5q32 0 58 19l139 105zM960 232l-224 168l224 168v-336zM550 301q-8 -7 -18 -10t-20 -3t-20 3t-18 10l-410 307q0 26 19 45t45 19h768q26 0 45 -19t19 -45z" />
    <glyph glyph-name="uniE60F" unicode="&#xe60f;" 
d="M933 561q-11 3 -28 5t-47 3.5t-51 2t-70 1.5t-75 2q8 37 8 105q0 84 -50.5 150t-107.5 66q-39 0 -67 -28t-29 -67q0 -22 -3 -44t-11.5 -49.5t-22 -51.5t-37 -47.5t-54.5 -39.5q-4 -2 -11.5 -6t-14 -7t-8.5 -4l2 -2q-13 12 -30 19t-34 7h-96q-40 0 -68 -28t-28 -68v-512
q0 -40 28 -68t68 -28h96q28 0 51 15t34 40h1h1q1 0 4 -1l4 -1h1q10 -3 24.5 -6.5t42 -10t63.5 -14.5q96 -22 191 -22h175q80 0 114 62q8 16 14 34q8 27 1 56q34 24 53 83q15 49 0 87q33 32 42 89q7 40 -12 76q26 29 27 69l1 7v16q0 21 -9 42.5t-30.5 40t-51.5 27.5zM224 -32
q0 -13 -9.5 -22.5t-22.5 -9.5h-96q-13 0 -22.5 9.5t-9.5 22.5v512q0 13 9.5 22.5t22.5 9.5h96q13 0 22.5 -9.5t9.5 -22.5v-512zM959 431q-2 -47 -63 -47h-64q-7 0 -11.5 -4.5t-4.5 -11.5t4.5 -11.5t11.5 -4.5h62q32 0 43 -19.5t8 -39.5q-2 -12 -5 -21.5t-10 -21.5t-21 -19
t-33 -7h-76q-7 0 -11.5 -4.5t-4.5 -11.5t4.5 -11.5t11.5 -4.5h63q25 0 36.5 -11.5t9.5 -26t-4 -28.5q-1 -1 -2 -4q-3 -10 -5 -15t-6 -13.5t-9.5 -12.5t-14 -8.5t-20.5 -6.5t-28 -2h-52q-5 0 -8.5 -2t-5.5 -6t-2 -8t2 -8t5.5 -6t8.5 -2h50q23 0 30 -16t3 -29q-4 -12 -9 -23
q-15 -28 -58 -28h-175q-88 0 -177 20q-126 29 -149 36q-3 0 -7.5 1.5t-12 9t-7.5 17.5v442q0 26 25 33q1 1 3 1q3 1 4 2q52 21 91 56.5t60 77t30.5 83t10.5 85.5q0 12 9 22t23 10q10 0 22.5 -7.5t25 -22t23 -32.5t17 -42t6.5 -48q0 -40 -2.5 -62t-7.5 -42.5t-20 -63.5
q152 0 226.5 -2t87.5 -3.5t32 -6.5q8 -2 14.5 -6t10.5 -9t7 -9.5t4 -9.5t1.5 -8.5t0.5 -6.5v-7q0 -3 -0.5 -6t-0.5 -7zM144 64q-20 0 -34 -14t-14 -34t14 -34t34 -14t34 14t14 34t-14 34t-34 14zM144 0q-7 0 -11.5 4.5t-4.5 11.5t4.5 11.5t11.5 4.5t11.5 -4.5t4.5 -11.5
t-4.5 -11.5t-11.5 -4.5z" />
    <glyph glyph-name="uniE610" unicode="&#xe610;" 
d="M690 650l-228 227v-153q-98 -13 -178 -68t-126 -142t-46 -187q0 -152 100.5 -265t249.5 -132v101q-107 18 -178.5 101.5t-71.5 194.5t71.5 194.5t178.5 101.5v-196zM909 377q-14 107 -82 195l-70 -71q39 -56 51 -124h101zM562 32v-102q108 14 195 81l-72 72
q-18 -13 -38.5 -23.5t-41.5 -17.5t-43 -10zM757 153l70 -71q69 88 82 195h-101q-12 -68 -51 -124z" />
    <glyph glyph-name="uniE611" unicode="&#xe611;" 
d="M711 17q7 -7 9.5 -16t0 -18t-9.5 -16q-10 -10 -24.5 -10.5t-24.5 10.5l-401 405q-11 10 -11 24.5t11 25.5l401 405q10 10 24.5 10t24.5 -10q7 -7 9.5 -16t0 -18.5t-9.5 -15.5l-365 -380z" />
    <glyph glyph-name="uniE612" unicode="&#xe612;" 
d="M678 397l-365 380q-5 5 -8 11.5t-3 13t3 13.5t8 12q10 10 24.5 10t24.5 -10l401 -405q11 -10 11 -25t-11 -25l-401 -405q-10 -10 -24.5 -10t-24.5 10q-5 5 -8 11.5t-3 13.5t3 13.5t8 11.5z" />
    <glyph glyph-name="uniE613" unicode="&#xe613;" 
d="M456 106h-47q-102 17 -170 96.5t-68 184.5q0 68 33 131l34 -49q19 -26 51.5 -20t40.5 37l66 238q7 24 -8.5 44.5t-41.5 20.5h-237q-32 0 -46 -28t4 -54l64 -89q-74 -104 -74 -231q0 -73 26 -141t71 -119.5t107 -87t133 -45.5q7 -1 15 0v-1h47q23 0 39.5 16.5t16.5 39.5v1
q0 23 -16.5 39.5t-39.5 16.5zM957 75l-64 89q35 50 54.5 109t19.5 122q0 73 -26 141t-71 119.5t-107 87t-133 46.5q-7 1 -15 0h-47q-15 0 -28 -7.5t-20.5 -20.5t-7.5 -28v-1q0 -11 4.5 -21.5t12 -18t18 -12t21.5 -4.5h47q102 -17 170 -96.5t68 -184.5q0 -68 -33 -131l-34 49
q-10 12 -24 17.5t-27.5 3t-25 -12.5t-15.5 -25l-66 -238q-7 -24 8.5 -44.5t41.5 -20.5h237q32 0 46 28.5t-4 53.5z" />
    <glyph glyph-name="uniE614" unicode="&#xe614;" 
d="M928 768h-832q-40 0 -68 -28t-28 -68v-576q0 -40 28 -68t68 -28h832q40 0 68 28t28 68v576q0 40 -28 68t-68 28zM88 64l-24 24l264 264l24 -24zM936 64l-264 264l24 24l264 -264zM544 278v-22h-64v22l-416 385l41 41l407 -378l407 378l41 -41z" />
    <glyph glyph-name="uniE615" unicode="&#xe615;" 
d="M922 757l-61 59q-60 59 -152.5 49t-163.5 -82l-82 -84q-1 -13 -2 -28.5t4.5 -31.5t15 -29t30 -20t50.5 -5l67 69q37 38 81 48.5t68 -12.5l24 -24q24 -24 14.5 -67.5t-46.5 -82.5l-114 -116q-38 -39 -81.5 -49.5t-67.5 13.5l-14 13l-110 -112q3 -3 8.5 -7.5t24 -17
t38.5 -21.5t50 -16t60.5 -6.5t69 13t75.5 38.5l188 192q71 72 78.5 165t-52.5 152zM464 179l-69 -68q-25 -24 -54 -37t-54.5 -11.5t-40.5 17.5l-24 24q-24 24 -13 67.5t49 81.5l117 113q39 38 82.5 47t67.5 -15l13 -14l113 109q-5 6 -15.5 15t-45 28t-70 27t-89 -1
t-105.5 -42l-193 -187q-73 -71 -83 -163.5t48 -152.5l60 -62q58 -60 151 -52.5t166 77.5l84 82q3 15 3 29t-4 31t-14 29.5t-30 20.5t-50 7z" />
    <glyph glyph-name="uniE616" unicode="&#xe616;" 
d="M634 841h-324q-34 0 -58.5 -24t-24.5 -58v-769q0 -23 11 -42t30 -30t42 -11h324q34 0 58.5 24.5t24.5 58.5v769q0 34 -24.5 58t-58.5 24zM410 766h124v-21h-124v21zM472 -60q-4 0 -8.5 1t-8 2.5t-7 3.5t-6.5 5l-4 6q-3 3 -4.5 7t-2 8t-0.5 8q0 17 12 29.5t29 12.5
t29 -12.5t12 -29.5t-12 -29t-29 -12zM701 59h-457v627h457v-627z" />
    <glyph glyph-name="uniE617" unicode="&#xe617;" horiz-adv-x="1056" 
d="M865 859h-714q-25 0 -48 -10t-39.5 -26.5t-26.5 -39.5t-10 -48v-456q0 -51 36.5 -87.5t87.5 -36.5h145v62h-100q-45 0 -76.5 30.5t-31.5 72.5v378q0 43 31.5 73.5t76.5 30.5h619q45 0 76.5 -30.5t31.5 -73.5v-378q0 -42 -31.5 -72.5t-76.5 -30.5h-323q-1 0 -3 -1.5
t-3 -2.5h-1q-6 -4 -10 -7v0l-2 -2q-7 -6 -10 -9v-1l-226 -234q-10 -11 -9 -26t12 -25.5t26 -11t25 10.5l238 245q0 1 1 1v1h335q51 0 87.5 36.5t36.5 87.5v456q0 51 -36.5 87.5t-87.5 36.5zM327 568h-77q-14 0 -25.5 -7t-18.5 -18.5t-7 -25.5q0 -21 15 -35.5t36 -14.5h77
q14 0 25.5 6.5t18.5 18t7 25.5t-7 25.5t-18.5 18.5t-25.5 7zM547 467q14 0 25.5 6.5t18 18t6.5 25.5q0 21 -14.5 36t-35.5 15h-78q-10 0 -19.5 -4t-16 -11t-10.5 -16.5t-4 -19.5t4 -19.5t10.5 -16t16 -10.5t19.5 -4h78zM791 467q21 0 36 14.5t15 35.5t-15 36t-36 15h-77
q-6 0 -12 -1.5t-10.5 -4t-9 -6t-8 -8t-6 -9.5t-4 -10.5t-1.5 -11.5q0 -21 15 -35.5t36 -14.5h77z" />
    <glyph glyph-name="uniE618" unicode="&#xe618;" 
d="M839 460h-499v155q0 77 55 131t133 54t132.5 -54t54.5 -131v-49h51v49q0 32 -8.5 63t-24 57t-37.5 48t-48 37.5t-57 24t-63 8.5q-99 0 -168.5 -69.5t-69.5 -168.5v-155h-74q-23 0 -39.5 -16.5t-16.5 -40.5v-431q0 -24 16.5 -40.5t39.5 -16.5h623q24 0 40.5 16.5
t16.5 40.5v431q0 24 -16.5 40.5t-40.5 16.5zM841 11q0 -6 -1.5 -11t-3.5 -9.5t-5.5 -8.5t-7.5 -7t-9 -5.5t-10.5 -3.5t-10.5 -1h-530q-20 0 -34 13.5t-14 32.5v352q0 19 14 32.5t34 13.5h27l50 -1v1h453q13 0 24 -6.5t17.5 -17t6.5 -22.5v-352z" />
    <glyph glyph-name="uniE619" unicode="&#xe619;" 
d="M928 470q0 123 -67 225q-8 1 -14.5 0.5t-12.5 -2t-11 -4t-9.5 -6t-8 -7.5t-6.5 -8q59 -86 59 -191q0 -131 -89 -228q1 -1 -1 -2l-1 -1l-17 -18q-9 -8 -19 -15q-17 -19 -40.5 -48t-45 -56t-40.5 -52t-31 -40l-11 -15q-8 -9 -19 -9t-19 5l-7 4q-10 30 -201 201
q-25 19 -47 42l-2 2q-90 98 -90 230q0 69 27 132t72.5 108.5t108.5 72t132 26.5q39 0 76.5 -8.5t71 -25t62.5 -39.5q16 8 26 21t16 29q-111 87 -252 87q-112 0 -206.5 -55t-149.5 -149.5t-55 -205.5q0 -160 109 -278h-1l3 -3q27 -28 58 -50q89 -81 162 -151.5t80 -91.5
l19 -9q22 -6 36 9q129 173 203 254q21 18 43 41l1 1q2 1 1 2q107 118 107 276zM352 446.5q0 -68.5 48.5 -117.5t117.5 -49t117.5 49t48.5 117.5t-48.5 117.5t-117.5 49t-117.5 -49t-48.5 -117.5zM599 446.5q0 -22.5 -11 -41t-29.5 -29.5t-40.5 -11q-34 0 -57.5 24
t-23.5 57.5t23.5 57.5t57.5 24q22 0 40.5 -11t29.5 -29.5t11 -41z" />
    <glyph glyph-name="uniE61A" unicode="&#xe61a;" 
d="M512 832q18 0 30.5 -12.5t12.5 -30.5v-494l140 141q12 12 30 12q19 0 31 -12t12 -31q0 -18 -12 -30l-214 -213q-12 -13 -30 -13t-30 13l-214 213q-12 13 -12 30q0 18 12.5 30.5t30.5 12.5t30 -12l140 -141v494q0 18 12.5 30.5t30.5 12.5zM939 235q17 0 29.5 -12.5
t12.5 -30.5v-171q0 -53 -37 -90q-37 -38 -90 -38h-683q-53 0 -91 38q-37 38 -37 90v171q0 18 12.5 30.5t30 12.5t30 -12.5t12.5 -30.5v-171q0 -17 12.5 -29.5t30.5 -12.5h683q18 0 30 12.5t12 29.5v171q0 18 12.5 30.5t30.5 12.5z" />
    <glyph glyph-name="uniE61B" unicode="&#xe61b;" 
d="M512 363q71 0 121 50t50 120.5t-50 120.5t-121 50q-46 0 -85.5 -23t-62.5 -62t-23 -86q0 -70 50 -120t121 -50zM512 277q-22 0 -47.5 -2.5t-54 -7.5t-56.5 -13.5t-55 -19t-50.5 -24t-40.5 -29t-27 -35t-10 -39.5v-86h682v86q0 52 -63 93t-139 59t-139 18z" />
    <glyph glyph-name="uniE61C" unicode="&#xe61c;" 
d="M648.5 361q75.5 0 128.5 53.5t53 128.5t-53 128.5t-128.5 53.5t-128.5 -53.5t-53 -128.5t53 -128.5t128.5 -53.5zM239 452v137h-91v-137h-136v-91h136v-136h91v136h137v91h-137zM648 270q-48 0 -108 -11.5t-118.5 -33t-97.5 -58t-39 -79.5v-90h727v90q0 30 -18.5 56
t-49 45.5t-69 35t-79.5 25.5t-78.5 15t-69.5 5z" />
    <glyph glyph-name="uniE61D" unicode="&#xe61d;" 
d="M512 111l309 -186l-82 351l273 237l-359 31l-141 331l-141 -331l-359 -31l273 -237l-82 -351z" />
    <glyph glyph-name="uniE61E" unicode="&#xe61e;" 
d="M1012 504l-359 31l-141 331l-141 -332l-359 -30l273 -237l-82 -351l309 186l309 -186l-81 351zM512 196v465l86 -202l219 -19l-166 -144l50 -214z" />
    <glyph glyph-name="uniE61F" unicode="&#xe61f;" 
d="M1012 513l-359 31l-141 331l-141 -331l-359 -31l273 -237l-82 -351l309 186l309 -186l-81 351zM512 205l-188 -114l50 214l-166 145l219 19l85 201l86 -202l219 -19l-166 -144l50 -214z" />
    <glyph glyph-name="uniE620" unicode="&#xe620;" 
d="M640 463l-128 -117l-128 117q-8 8 -18.5 8t-18.5 -8q-5 -4 -7 -11t0 -13.5t7 -11.5l147 -144q7 -7 18 -7t18 7l147 144q4 4 6 8.5t2 9.5t-2 10t-6 8q-8 8 -18.5 8t-18.5 -8zM512 888q-100 0 -191 -39t-157 -104.5t-105 -156.5t-39 -191t39 -191t105 -157t157 -105
t191 -39t191 39t157 105t105 157t39 191q0 67 -18 130.5t-49.5 117.5t-77 99.5t-99.5 77t-117.5 49t-130.5 17.5zM512 -31q-116 0 -214.5 57.5t-156 156t-57.5 214.5t57.5 214.5t156 156t214.5 57.5q87 0 166 -34t136.5 -91.5t91.5 -136.5t34 -166t-34 -166.5t-91.5 -136.5
t-136.5 -91t-166 -34z" />
    <glyph glyph-name="uniE621" unicode="&#xe621;" 
d="M579 562q-3 3 -7 5t-8 2.5t-7.5 0t-7.5 -2.5t-7 -5l-143 -147q-8 -7 -8 -18t8 -19l143 -146q5 -5 11.5 -7t13.5 0t12 7t6.5 11.5t0 13.5t-6.5 12l-118 128l118 128q7 8 7 18.5t-7 18.5zM512 888q-100 0 -191 -39t-157 -104.5t-105 -156.5t-39 -191t39 -191t105 -157
t157 -105t191 -39t191 39t157 105t105 157t39 191q0 67 -18 130.5t-49.5 117.5t-77 99.5t-99.5 77t-117.5 49t-130.5 17.5zM512 -31q-116 0 -214.5 57.5t-156 156t-57.5 214.5t57.5 214.5t156 156t214.5 57.5q87 0 166 -34t136.5 -91.5t91.5 -136.5t34 -166t-34 -166.5
t-91.5 -136.5t-136.5 -91t-166 -34z" />
    <glyph glyph-name="uniE622" unicode="&#xe622;" 
d="M563 397l-118 128q-7 8 -7 18.5t7.5 18t18 7.5t18.5 -7l143 -147q3 -2 4.5 -5t2.5 -6.5t1 -7t-1 -6.5t-2.5 -6t-4.5 -5l-143 -147q-8 -8 -18.5 -8t-18 7.5t-7.5 18.5t7 19zM512 888q100 0 191 -39t157 -104.5t105 -156.5t39 -191t-39 -191t-105 -157t-157 -105t-191 -39
q-67 0 -130.5 18t-117.5 49.5t-99.5 77t-77 99t-49.5 117.5t-18 131q0 100 39 191t105 156.5t157 104.5t191 39zM512 -31q116 0 214.5 57.5t156 156t57.5 214.5t-57.5 214.5t-156 156t-214.5 57.5t-214.5 -57.5t-156 -156t-57.5 -214.5t57.5 -214.5t156 -156t214.5 -57.5z
" />
    <glyph glyph-name="uniE623" unicode="&#xe623;" 
d="M530 510q-2 2 -4 3.5t-4.5 2.5t-5 1.5t-4.5 0.5t-4.5 -0.5t-5 -1.5t-4.5 -2.5t-4 -3.5l-147 -144q-4 -3 -6 -8t-2 -10t2 -9.5t6 -8.5q5 -5 11.5 -6.5t13.5 0t12 6.5l128 118l128 -118q5 -5 12 -6.5t13.5 0t11.5 6.5q3 3 5 7t2.5 7.5t0 7.5t-2.5 8t-5 6zM512 888
q-100 0 -191 -39t-157 -104.5t-105 -156.5t-39 -191t39 -191t105 -157t157 -105t191 -39t191 39t157 105t105 157t39 191q0 67 -18 130.5t-49.5 117.5t-77 99.5t-99.5 77t-117.5 49t-130.5 17.5zM512 -31q-116 0 -214.5 57.5t-156 156t-57.5 214.5t57.5 214.5t156 156
t214.5 57.5q87 0 166 -34t136.5 -91.5t91.5 -136.5t34 -166t-34 -166.5t-91.5 -136.5t-136.5 -91t-166 -34z" />
    <glyph glyph-name="uniE624" unicode="&#xe624;" 
d="M274 172h-159q-11 0 -18.5 -7.5t-7.5 -18.5v-159q0 -11 7.5 -18.5t18.5 -7.5h159q11 0 18.5 7.5t7.5 18.5v159q0 11 -7.5 18.5t-18.5 7.5zM247 40q0 -11 -7.5 -18.5t-18.5 -7.5h-53q-11 0 -18.5 7.5t-7.5 18.5v53q0 11 7.5 19t18.5 8h53q7 0 13 -4t9.5 -10t3.5 -13v-53z
M909 119h-476q-11 0 -19 -7.5t-8 -18.5v-53q0 -11 8 -18.5t19 -7.5h476q7 0 13 3.5t9.5 9.5t3.5 13v53q0 11 -7.5 18.5t-18.5 7.5zM909 437h-476q-11 0 -19 -8t-8 -19v-52q0 -11 8 -19t19 -8h476q5 0 10 2t8.5 5.5t5.5 8.5t2 11v52q0 11 -7.5 19t-18.5 8zM274 807h-159
q-11 0 -18.5 -7.5t-7.5 -18.5v-159q0 -7 3.5 -13t9.5 -9.5t13 -3.5h159q10 0 18 19.5t8 32.5v133q0 11 -7.5 18.5t-18.5 7.5zM247 675q0 -11 -7.5 -19t-18.5 -8h-53q-11 0 -18.5 8t-7.5 19v53q0 11 7.5 18.5t18.5 7.5h53q11 0 18.5 -7.5t7.5 -18.5v-53zM274 490h-159
q-5 0 -10 -2t-8.5 -5.5t-5.5 -8.5t-2 -11v-158q0 -11 7.5 -19t18.5 -8h159q11 0 18.5 8t7.5 19v158q0 5 -1 9t-3.5 7t-6 5.5t-7.5 4t-8 1.5zM247 358q0 -11 -7.5 -19t-18.5 -8h-53q-11 0 -18.5 8t-7.5 19v52q0 5 1 9t3.5 7t6 5.5t7.5 4t8 1.5h53q11 0 18.5 -8t7.5 -19v-52z
M909 754h-476q-6 0 -11 -2t-8.5 -5.5t-5.5 -8.5t-2 -10v-53q0 -11 8 -19t19 -8h476q11 0 18.5 8t7.5 19v53q0 11 -7.5 18.5t-18.5 7.5z" />
    <glyph glyph-name="uniE625" unicode="&#xe625;" 
d="M680 770h-398q-30 0 -56 -14.5t-41.5 -40.5t-15.5 -56v-676q0 -46 33.5 -78.5t79.5 -32.5h504q31 0 57 15t41 40.5t15 55.5v557zM672 682l138 -139h-111q-3 0 -7 1.5t-11.5 9t-7.5 18.5v110h-1zM839 28q0 -26 -13 -48t-34.5 -35t-47.5 -13h-423q-39 0 -67 28.5t-28 67.5
v586q0 40 28 68t67 28h294v-112q0 -3 -0.5 -7.5t-0.5 -17.5t2.5 -24.5t10 -25t19 -22.5t32 -13.5t47.5 -0.5l114 -2v-457zM329 321h389v-50h-389v50zM329 154h389v-49h-389v49z" />
    <glyph glyph-name="uniE626" unicode="&#xe626;" horiz-adv-x="1120" 
d="M482 603l-89 -102q-8 -10 2 -19t19 1l89 102q8 10 -2 19q-4 4 -9.5 3.5t-9.5 -4.5zM399 542l42 49q4 5 -3.5 11.5t-11.5 1.5l-42 -48q-5 -5 3 -12q7 -5 12 -2zM409.5 263q-15.5 0 -29.5 -6t-24 -16t-16 -24t-6 -30q0 -20 10 -37.5t27.5 -27.5t38.5 -10q15 0 29 6t24 16
t16 24t6 29.5t-6 29.5t-16 24t-24 16t-29.5 6zM410 136q-22 0 -37 15t-15 36q0 11 4 20.5t11 16.5t16.5 11t20.5 4q21 0 36 -15t15 -37q0 -14 -6.5 -26t-18.5 -18.5t-26 -6.5zM943.5 263q-31.5 0 -53.5 -22t-22 -54q0 -15 6 -29t16 -24t24 -16t29 -6q21 0 38.5 10t27.5 27.5
t10 37.5q0 32 -22 54t-53.5 22zM943.5 136q-21.5 0 -36.5 15t-15 36q0 8 1.5 14.5t5 12t8.5 10.5t10.5 8.5t12 5t13.5 1.5q22 0 37 -15t15 -36.5t-15 -36.5t-36.5 -15zM519 52h325v267h-325v-267zM550 287h263v-26h-263v26zM550 228h263v-54h-263v54zM550 142h263v-59h-263
v59zM1109 762h-886v-531v-1v-1v-174q0 -25 17.5 -42t41.5 -17h15v-48q0 -21 10 -38.5t27.5 -27.5t38.5 -10t38.5 10t27.5 27.5t10 38.5v48h426v-48q0 -31 22 -53.5t53.5 -22.5t54 22.5t22.5 53.5v48h23q24 0 41.5 17t17.5 42v174v1v1v531zM521 730h293v-57h-293v57zM814 640
h68q45 0 76.5 -30t31.5 -72v-161h-645v161q0 42 31.5 72t75.5 30h362zM256 730h236v-57h-61q-49 0 -83.5 -34.5t-34.5 -83.5v-206q-1 -5 -3.5 -14t-10.5 -25.5t-17 -21.5v11h-26v431zM418 -49q0 -5 -1 -10.5t-3.5 -10t-5.5 -8.5t-7 -7t-8.5 -5t-9.5 -3.5t-10 -1.5
q-19 0 -32.5 13.5t-13.5 32.5v45h91v-45zM996 -49q0 -19 -13.5 -32.5t-32 -13.5t-32 13.5t-13.5 32.5v45h91v-45zM1079 72q0 -20 -16 -34t-38 -14h-715q-23 0 -39 14t-16 34v140q0 5 1.5 10.5t4 10t6 8.5t7.5 7t9 5q1 1 2.5 1.5t6 4t8.5 7.5t10.5 12t12 17.5t11.5 23.5
t11 30h645q2 -17 9 -33.5t15.5 -27t16.5 -18.5t14 -12l5 -4l-1 34q-9 5 -16.5 20.5t-10.5 27.5l-3 13v206q0 24 -9 46t-25 37.5t-37.5 25t-45.5 9.5h-58v57h234v-431h-27v-11h-1v-34q29 -13 29 -42v-140z" />
    <glyph glyph-name="uniE627" unicode="&#xe627;" 
d="M677 896h-452q-54 0 -91.5 -37t-37.5 -90v-770q0 -53 37.5 -90t91.5 -37h574q53 0 90.5 37t37.5 90v634zM669 795l157 -158h-110l11 21h-55q-2 6 -3 12v125zM859 50q0 -45 -32 -77t-76 -32h-482q-45 0 -77 32t-32 77v668q0 45 32 77t77 32h335v-128q-1 -6 -2 -17.5
t4.5 -37.5t20.5 -43l-108 -217h-12l-152 281h-78l148 -281h-136v-65h188v-62h-188v-66h188v-158h66v158h192v66h-192v62h192v65h-140l90 188q4 0 7 -0.5t6 -0.5h8q4 0 7.5 0.5t8 0.5t8.5 1l129 -2v-521z" />
    <glyph glyph-name="uniE628" unicode="&#xe628;" horiz-adv-x="1056" 
d="M540 896q-104 0 -199 -40.5t-163.5 -109t-109 -163.5t-40.5 -199t40.5 -199t109 -163.5t163.5 -109t199 -40.5t199 40.5t163.5 109t109 163.5t40.5 199t-40.5 199t-109 163.5t-163.5 109t-199 40.5zM271 -25l1 -1q2 -1 3 -2v2v3q0 106 72.5 182.5t176.5 81.5h16h3h4h4h4
q104 -5 176.5 -81.5t72.5 -182.5v-5q-120 -79 -264 -79q-147 0 -269 82zM355 460q0 49 25 90.5t67.5 65.5t92.5 24q76 0 130 -52.5t54 -127.5q0 -49 -24.5 -90.5t-67 -65.5t-92.5 -24t-92.5 24t-67.5 65.5t-25 90.5zM836 -5q-5 92 -60.5 165t-141.5 101q59 27 94.5 80.5
t35.5 118.5q0 91 -65.5 155t-158.5 64t-159 -64t-66 -155q0 -32 9.5 -63t26.5 -56.5t41 -46t53 -33.5q-56 -19 -101 -58t-71.5 -93t-29.5 -115q-58 45 -100 104.5t-65.5 132.5t-23.5 151q0 66 17.5 129.5t48.5 117.5t76 99t98.5 76.5t116.5 49.5t129 18q99 0 188.5 -39
t154.5 -104.5t103.5 -156.5t38.5 -190q0 -117 -50.5 -218.5t-138.5 -170.5v1z" />
    <glyph glyph-name="uniE629" unicode="&#xe629;" 
d="M512 896q-139 0 -257 -68.5t-186.5 -186.5t-68.5 -257t68.5 -257t186.5 -186.5t257 -68.5t257 68.5t186.5 186.5t68.5 257t-68.5 257t-186.5 186.5t-257 68.5zM512 704q26 0 45 -19t19 -45t-19 -45t-45 -19t-45 19t-19 45t19 45t45 19zM352 128l96 64h64v256h-64l-32 64
h160v-320h64l96 -64h-384z" />
    <glyph glyph-name="uniE62A" unicode="&#xe62a;" 
d="M1015 668l-91 91q-10 9 -23 9t-23 -9l-464 -491l-266 267q-4 3 -8.5 5.5t-9.5 3t-10 0t-10 -3t-8 -5.5l-92 -93q-10 -9 -10 -22.5t10 -23.5l378 -387q4 -4 8.5 -6t9 -2.5t9.5 -0.5q8 -1 15 1t13 8l572 613q9 10 9 23t-9 23z" />
    <glyph glyph-name="uniE62B" unicode="&#xe62b;" 
d="M983 679l-294 -296l294 -294q9 -9 9 -22.5t-9 -22.5l-134 -133q-9 -10 -22 -10t-22 10l-294 293l-292 -293q-9 -10 -22 -10t-23 10l-133 133q-9 9 -9 22.5t9 22.5l292 294l-292 292q-6 6 -8 14t0 16t8 14l134 134q9 9 22 9t22 -9l292 -292l294 296q9 10 22 10t22 -10
l134 -133q9 -9 9 -22.5t-9 -22.5z" />
    <glyph glyph-name="uniE62C" unicode="&#xe62c;" 
d="M915 570h-806q-8 0 -15.5 -4t-11.5 -11.5t-4 -15.5v-279q0 -13 9 -22t22 -9h31v-310q0 -7 2.5 -12.5t6.5 -9.5t10 -6.5t12 -2.5h682q8 0 15.5 4t11.5 11t4 16v310h31q13 0 22 9t9 22v279q0 13 -9 22t-22 9zM450 -19q0 -9 -4 -16t-11.5 -11t-15.5 -4h-186q-13 0 -22 9
t-9 22v248q0 8 4 15.5t11.5 11.5t15.5 4h186q8 0 15.5 -4t11.5 -11.5t4 -15.5v-248zM450 353q0 -9 -4 -16t-11.5 -11t-15.5 -4h-248q-8 0 -15.5 4t-11.5 11t-4 16v124q0 13 9 22t22 9h248q8 0 15.5 -4t11.5 -11.5t4 -15.5v-124zM822 -19q0 -6 -2.5 -12t-6.5 -10t-10 -6.5
t-12 -2.5h-186q-13 0 -22 9t-9 22v248q0 13 9 22t22 9h186q6 0 12 -2.5t10 -6.5t6.5 -10t2.5 -12v-248zM884 353q0 -13 -9 -22t-22 -9h-248q-8 0 -15.5 4t-11.5 11t-4 16v124q0 13 9 22t22 9h248q13 0 22 -9t9 -22v-124zM374 570h286q93 67 100 130q3 23 -6 46.5t-36 45.5
q-17 13 -34 19.5t-33 6.5q-87 0 -133 -164q-11 42 -24.5 78t-33 71.5t-46.5 56t-57 20.5q-38 0 -74 -32q-58 -51 -48 -116q12 -82 139 -162zM650 744q6 0 12.5 -3t13.5 -9q16 -13 15 -23q-2 -20 -34 -48.5t-79 -56.5q9 39 20.5 70t25.5 50.5t26 19.5zM327 790q17 15 30 15
q18 0 37.5 -29.5t35 -73t27.5 -95.5q-61 32 -105 69t-49 68v4v6q0 3 1.5 6.5t4 8.5t7.5 10.5t11 10.5z" />
    <glyph glyph-name="uniE62D" unicode="&#xe62d;" 
d="M672 0q13 0 22.5 9.5t9.5 22.5v448q0 13 -9.5 22.5t-22.5 9.5t-22.5 -9.5t-9.5 -22.5v-448q0 -13 9.5 -22.5t22.5 -9.5zM352 0q13 0 22.5 9.5t9.5 22.5v448q0 13 -9.5 22.5t-22.5 9.5t-22.5 -9.5t-9.5 -22.5v-448q0 -13 9.5 -22.5t22.5 -9.5zM928 704h-128v64
q0 53 -37.5 90.5t-90.5 37.5h-320q-53 0 -90.5 -37.5t-37.5 -90.5v-64h-128l-96 -96q0 -13 9.5 -22.5t22.5 -9.5h96v-640q0 -26 19 -45t45 -19h640q26 0 45 19t19 45v640h96q13 0 22.5 9.5t9.5 22.5zM320 768q0 26 19 45t45 19h256q26 0 45 -19t19 -45v-64h-384v64zM832 -32
q0 -13 -9.5 -22.5t-22.5 -9.5h-576q-13 0 -22.5 9.5t-9.5 22.5v608h640v-608zM512 0q13 0 22.5 9.5t9.5 22.5v448q0 13 -9.5 22.5t-22.5 9.5t-22.5 -9.5t-9.5 -22.5v-448q0 -13 9.5 -22.5t22.5 -9.5z" />
    <glyph glyph-name="uniE62E" unicode="&#xe62e;" 
d="M637 102v0v-1q1 1 1 2zM591 364q-13 10 -18 17q-3 4 -2.5 14.5t2.5 21.5l2 11l-8 1q5 0 8 1q0 1 1 8l-9 3q5 -2 9 -2q3 36 8 46q-7 2 -13 5t-8.5 6t-4.5 6l-2 5v2q3 -8 8 -12.5t10.5 -6.5t11.5 -3l1 1q2 3 3.5 6.5t7 15t7 21.5t3 25t-4.5 25l1 3q-10 -7 -19.5 -8t-13.5 1
l-4 3q13 -4 21.5 -1.5t15.5 9.5q3 35 4 70l-17 4q9 -3 17 -2v24q-4 -2 -9 -3.5t-8.5 -2t-7 -0.5t-6 0.5t-4.5 1.5t-3.5 2t-2.5 1.5t-1 1.5h-1q21 -13 43 3q0 29 -3 53t-9 42l-25 4q9 2 24 -2q-1 2 -2 5q-3 2 -6.5 3.5t-7 2.5t-6.5 2t-6 1.5t-5.5 1t-5.5 0.5h-4q-1 0 -2 1h-1
q8 1 19 -1t23 -7q-2 4 -4.5 7t-4.5 6q-1 0 -2 1.5t-4.5 4t-7.5 5.5v17q-8 6 -23 4q-6 -1 -8 -2l8 2q15 3 23 0v13q-5 4 -10.5 5.5t-9.5 1t-7 -1t-5 -1.5l-1 -1q7 5 14.5 4.5t17.5 -2.5q-1 8 -5.5 14.5t-11.5 10.5t-16 4q-19 0 -29 -18h5q3 0 5.5 0.5t4.5 1t3 1.5h1
q-6 -6 -20 -4v-1l-1 -1q-9 0 -15 -1.5t-6 -6.5q0 -2 1 -4.5t2.5 -4t4 -2.5t5.5 -2t6 -1v-11q5 1 14 1q3 1 6 1t5 -1h-11q-6 -1 -14 -3v-8q5 0 12 1h2h2h-4l-12 -3v-8v-4q-12 -9 -24 -23q11 7 21 7.5t14 -1.5l4 -3q-24 10 -45 -12q-12 -25 -13 -59q13 -6 27 0q-1 -1 -3 -2
t-9.5 -2.5t-14.5 1.5q-1 -10 0 -17q6 -3 11.5 -4t12.5 0.5t14 6.5q-1 -1 -1.5 -2t-4 -3t-7.5 -3t-10.5 -1t-14.5 3q0 -4 0.5 -7.5t1 -7.5t1.5 -8l-9 -5q-5 -2 -18.5 -13.5t-23.5 -26t-17.5 -41t-5.5 -57.5v-6q0 -3 -3 -12.5t-8 -17.5t-17 -17t-29 -14q2 0 4 0.5t8.5 3t13 6
t15 11.5t15 18.5t13 27.5t9.5 37l2 7q2 5 8 16t13.5 20t19.5 16.5t25 8.5q1 -2 1.5 -5.5t2 -13.5t2.5 -19q19 -8 36 4l-1 -1q-1 -1 -4 -3t-7 -3.5t-10.5 -1.5t-13.5 2q1 -6 0.5 -13t-1.5 -11q25 -16 46 -1q-1 -2 -4.5 -4t-15 -5t-27.5 6l-4 -4q-1 -1 -4 -3.5t-7 -7t-9 -10
t-10.5 -13t-10.5 -14.5q26 -18 47 -2v-2l-3 -2q-2 -2 -4.5 -3t-7 -2t-9 -0.5t-11.5 2.5t-14 5q-53 -80 -48 -136q18 -5 32 5l-1 -1q-1 -1 -3.5 -3t-6 -3t-9 -1.5t-11.5 1.5v-2v-1q-2 0 -4.5 -1.5t-10.5 -6t-14 -10.5t-14 -16t-11 -22t-5.5 -29t3.5 -37q2 -2 4 -5.5t7.5 -15
t7.5 -22t4 -26t-5 -28.5q2 2 4 5.5t5.5 15t5 23t-1 28t-10.5 33.5q-1 2 -1 6.5t1 17t5 22t13.5 18.5t24.5 12q37 -96 57 -122q2 -1 4 -4.5t7 -14t8.5 -21.5t6 -28t1 -33.5t-9 -37.5t-21.5 -41q1 1 2 2.5t5 7t7.5 11.5t7.5 15.5t7 20t5.5 24t3 27.5t-1.5 31.5t-7 35.5
q-1 4 -3.5 11t-6 21t-2.5 19q3 9 20 3q23 -9 28 -38v2q0 1 -0.5 4.5t-1 7.5t-1.5 9t-3 9t-6 8.5t-8.5 7t-11.5 4t-16 1.5q-3 2 -7 5.5t-13.5 16t-14 26.5t-2.5 36t15 45q6 10 14.5 24.5t28.5 39.5t31 27q-1 -5 -2 -13.5t0.5 -32t7 -45t22.5 -47.5t43 -45q2 -1 4 -4t7 -12
t9 -18.5t7.5 -24.5t4 -30t-3.5 -34t-13 -38q-1 -3 -4 -8.5t-10 -23t-13.5 -35.5t-12.5 -44.5t-9 -52t-1.5 -55t8.5 -56.5q-1 5 -2 14.5t-1 38.5t3.5 58t15 69.5t30.5 75.5q0 1 1 2.5t3 6t4.5 7.5t5.5 5.5t6.5 2t5.5 -4.5q7 -5 8 -21q1 0 1 -1q0 -9 -1 -16q5 20 1 43
q-1 10 -1.5 34t-0.5 49t-8.5 56t-24.5 53q4 0 10.5 -1.5t24 -9.5t30.5 -20t24.5 -35.5t11.5 -54.5l-1 30q-13 81 -109 109z" />
    <glyph glyph-name="uniE62F" unicode="&#xe62f;" 
d="M524 796q-116 0 -214.5 -57.5t-156 -156t-57.5 -214.5t57.5 -214.5t156 -156t214.5 -57.5t214.5 57.5t156 156t57.5 214.5q0 87 -34 166t-91.5 136.5t-136.5 91.5t-166 34zM524 -13q-103 0 -191 51t-139 138.5t-51 191.5q0 77 30.5 147.5t81 121.5t121 81.5t148.5 30.5
q62 0 120 -19.5t105 -54.5t82 -82t54.5 -105t19.5 -120q0 -104 -51 -191.5t-139 -138.5t-191 -51zM546 368v301h-44v-343v-2l343 -3v44z" />
    <glyph glyph-name="uniE630" unicode="&#xe630;" 
d="M824 663h-83v55h-110l-10 12q-6 8 -25.5 23.5t-39 20t-46 -8t-49.5 -47.5h-112v-55h-90q-47 0 -80 -33t-33 -80v-565q0 -47 33 -80t80 -33h565q47 0 80 33t33 80v565q0 47 -33 80t-80 33zM405 608h1v52h55q1 1 3 4t8 10.5t12 14t16 13.5t20.5 10.5t23.5 4t26.5 -5
t29 -18.5t31.5 -33h57v-113h-283v61zM884 23q0 -41 -28 -69.5t-68 -28.5h-482q-26 0 -48 13t-35 35.5t-13 49.5v488q0 40 28 68.5t68 28.5h43v-116h392v116h47q40 0 68 -28.5t28 -68.5v-488zM320 378h452v-56h-452v56zM320 233h452v-56h-452v56zM320 92h452v-56h-452v56z
" />
    <glyph glyph-name="uniE631" unicode="&#xe631;" 
d="M497 888q-1 -2 -3 -6.5t-11.5 -18.5t-20.5 -27t-30.5 -31.5t-42 -33.5t-55 -31t-68.5 -26.5t-83.5 -17.5t-99.5 -6v-356q113 -222 262 -359q42 12 26 60q-3 2 -9.5 7.5t-28.5 29.5t-46 55.5t-62 89.5t-77 127v281q11 1 29.5 3t68.5 12t92.5 24.5t88 43.5t67.5 65
q5 -6 16 -16.5t46 -36.5t73 -45.5t95.5 -34t114.5 -11.5v-270l-23 -59q-91 -193 -267 -324q-37 -27 -77 -51q2 -22 6 -39q14 -6 16 -6q6 2 16 5.5t41.5 20t62 37.5t72.5 58.5t78.5 82.5t74.5 111t65 142v357l-43 -4q-153 -1 -290 121q-39 35 -74 77zM535 244v126h126
q11 0 21 5.5t15.5 15t5.5 20.5q0 17 -12.5 29t-29.5 12h-126v127q0 17 -12 29t-29.5 12t-29.5 -12t-12 -30v-125h-126q-11 0 -20.5 -6t-15 -15.5t-5.5 -20.5t5.5 -20.5t15 -15t20.5 -5.5h126l1 -126q0 -18 12 -30t29 -12q11 0 20.5 5.5t15 15t5.5 21.5z" />
    <glyph glyph-name="uniE632" unicode="&#xe632;" horiz-adv-x="1408" 
d="M1075 96v-86q0 -21 -16 -36t-38 -15h-648q-15 0 -27.5 6.5t-20 18.5t-7.5 26v657q0 21 16 36t39 15h648q14 0 26.5 -6.5t20 -18.5t7.5 -26v-78h63v133q0 25 -18.5 42.5t-44.5 17.5h-756q-27 0 -45 -17.5t-18 -42.5v-767q0 -16 8 -30t22.5 -22t32.5 -8h756q26 0 44.5 17.5
t18.5 42.5v141h-63zM1168 400l-198 172l-41 -48l179 -155h-569v-63h555l-139 -159l47 -42l176 201q7 11 10.5 22t3.5 19.5t-3 17.5t-5.5 14.5t-7 11t-6.5 7.5z" />
    <glyph glyph-name="uniE63B" unicode="&#xe63b;" 
d="M534 372h325v-399h-694v399h516l-96 100h-432q-36 0 -62 -25.5t-26 -62.5v-423q0 -18 7 -34.5t19 -28t28 -18.5t34 -7h718q24 0 44 11.5t32 32t12 44.5v423q0 37 -26 62.5t-62 25.5h-437zM787 397h-100v224q0 73 -51.5 124t-123.5 51q-35 0 -67.5 -14t-56 -37
t-37.5 -55.5t-14 -68.5v-49h-100v49q0 114 80.5 194.5t194.5 80.5t194.5 -80.5t80.5 -194.5v-224z" />
    <glyph glyph-name="uniE63C" unicode="&#xe63c;" 
d="M717 349l17 17q9 9 17 19q1 0 1.5 1.5t1.5 1.5q2 3 4 5.5t4 5.5q6 8 11 16v1q3 3 4 5q13 22 22 45l1 1q4 11 7.5 22.5t6.5 23t5 23.5t2.5 24t0.5 24q0 50 -15.5 97.5t-44 86t-67.5 67.5t-85 45q-1 0 -4 1q-6 2 -11.5 3.5t-10.5 2.5q-2 1 -5.5 1.5t-4.5 0.5q-13 3 -18 4
q-7 1 -19 2h-4q-2 0 -4 0.5t-3 0.5h-1h-7h-8h-8h-9q-2 0 -3.5 -0.5t-3.5 -0.5h-4q-3 0 -4.5 -0.5t-4.5 -0.5t-5.5 -0.5t-4.5 -0.5q-5 -1 -18 -4q-1 0 -4.5 -0.5t-5.5 -1.5q-10 -2 -22 -6l-4 -2q-61 -20 -109.5 -63.5t-76 -104t-27.5 -127.5q0 -60 23 -117l1 -1q4 -12 10 -23
l12 -22l4 -6q5 -9 11 -16q2 -3 3 -4t2.5 -3t2.5 -4l1 -2q1 -1 2 -1q5 -6 10.5 -12t11.5 -12l12 -12q-64 -37 -109.5 -97.5t-67.5 -132.5t-22 -153v-94h332h22h464v94q0 175 -102 297q-45 53 -102 86zM457 -26h-22h-230q3 114 62 202t158 115l60 16l1 1h1v58l-56 22
q-68 28 -104.5 92t-24.5 139q4 23 13 45l1 2q3 7 6 13q0 1 2 4l6 10q3 5 7 10l1 2l2 3q1 1 2.5 3t1.5 2.5t3 3.5t5 6t4 4.5t3 3.5q6 6 12 11q1 1 5 4l1 1q6 5 11 8q2 2 5 4t5 3.5t4.5 2.5t5.5 3h1l1 1q9 5 19 9h2l1 1q8 4 17 6l2 1h2q5 2 10 3l10 2q17 3 36.5 3t36.5 -3
q10 -2 20 -5h2q1 -1 2 -1q3 -1 5.5 -2t5.5 -2l6 -2l1 -1h2l4 -2l6 -2q2 -1 4 -2.5t5 -2.5l1 -1h1q7 -4 14 -9l6 -4q5 -3 11 -8q4 -4 6 -5q6 -5 12 -11l7 -8q3 -3 5 -6q5 -6 7 -9l2 -2l1 -2q7 -10 13 -21v-1l2 -3l6 -13v-1q1 0 1 -1q9 -22 13 -45q12 -75 -24.5 -139
t-104.5 -92l-56 -22v-58h1l1 -1l59 -16q101 -27 162 -115.5t64 -201.5h-362z" />
    <glyph glyph-name="uniE63F" unicode="&#xe63f;" horiz-adv-x="1204" 
d="M1183 559q-12 57 -31.5 110.5t-45.5 104.5l-110 -68q77 -151 77 -320q0 -170 -78 -322l106 -74q68 127 90 271q10 65 10 126q0 85 -18 172zM819 596q21 -49 32 -102.5t11 -106.5q0 -52 -10 -103.5t-30 -99.5l107 -74q62 132 62 277t-62 277zM644 488q15 -51 15 -101
q0 -41 -10 -82l111 -77q27 78 27 159q0 87 -31 170zM579 -128h-226l-180 256h-173v512h172l180 256h227v-1024zM421 0h30v768h-29l-180 -256h-114v-256h113z" />
    <glyph glyph-name="uniE648" unicode="&#xe648;" 
d="M826 476q-1 7 -7 13q-36 -37 -307 -37q-85 0 -141.5 2.5t-103.5 11t-62 23.5q-3 -3 -5 -6t-2 -7h-1v-2v0q0 -1 1 -2l24 -501q1 -7 3 -14t7 -14.5t12.5 -14.5t19.5 -14.5t28 -13.5t37.5 -11t48 -9t61 -6t73.5 -2q70 0 123 6.5t83.5 16.5t50 24t26 26t7.5 26l24 501l1 1
q0 1 -1 1l1 3h-1v-1zM661 739v118q0 11 -5 19.5t-14 14t-20 5.5h-234q-16 0 -27.5 -11.5t-11.5 -27.5v-120q-43 -5 -79 -12t-61.5 -16t-40 -20t-14.5 -22v-59q0 -6 4 -11.5t11.5 -11t18.5 -10.5q44 -21 131 -33.5t193 -12.5q70 0 134 6t112.5 16t77.5 24q34 16 34 33v59
q0 15 -26.5 29.5t-73.5 25t-109 17.5zM424 744l-10 -1v49q0 5 0.5 10t1 9.5t1 8t1 6t1.5 4t2 1.5h45h79h45q7 0 7 -39v-48q-44 2 -85 2q-44 0 -88 -2z" />
    <glyph glyph-name="uniE649" unicode="&#xe649;" 
d="M495 613l-320 -323q4 -3 10.5 -7t31.5 -10.5t57 -5.5q1 -1 2 -5l8 -16q3 -6 9.5 -16t14 -18t18.5 -17.5t26 -18.5t34 -18q-1 -30 6 -56.5t15 -37.5l8 -11l320 322q-2 22 -13 47t-30.5 51.5t-45.5 52.5q-17 17 -34.5 30.5t-32 22.5t-27.5 15.5t-24.5 10.5t-19 5.5
t-13.5 2.5zM958 844q-64 52 -112.5 52t-79.5 -30q-4 -3 -12.5 -10.5t-19.5 -16.5t-20.5 -16.5t-21.5 -17.5q80 -5 156 -80q43 -44 60.5 -82.5t17.5 -69.5q11 14 19.5 24.5t18.5 23.5t16.5 21.5t8.5 10.5q15 15 23.5 35t9.5 45t-15 54.5t-49 56.5zM227 229q-13 0 -24 0.5
t-19 2t-14.5 3t-10 3t-6 2.5t-3.5 2l-1 1l-147 -369l367 153l-1 1l-3 6t-3.5 8.5t-4.5 11t-5 12t-4.5 12.5t-4 13.5t-2.5 12.5t0 11q-27 9 -63.5 40t-50.5 74zM650 769l-36 -35q3 -1 8 -2t21.5 -7.5t33.5 -16t41.5 -27.5t47.5 -41q25 -24 43.5 -51t28.5 -50t13 -42l34 34
q1 3 1.5 7.5t-2.5 20.5t-10 32.5t-24 42t-42 50.5q-18 18 -36.5 32t-33.5 23t-29 15.5t-24.5 9t-18.5 4t-12 1.5h-4zM807 461q0 2 0.5 7t-2.5 20t-9.5 30.5t-22.5 40t-40 48.5q-24 23 -48 40.5t-42 25t-32.5 11.5t-21.5 4l-8 1z" />
    <glyph glyph-name="uniE64A" unicode="&#xe64a;" horiz-adv-x="1025" 
d="M943 815q-27 26 -53.5 44t-46 25t-35 10t-23.5 2l-8 -1l-332 -331l-379 -379l-66 -313l313 66l379 379l331 332q0 30 -4 47q-18 60 -76 119zM294 -24l-107 -23q-18 34 -45 61t-61 45l23 107l31 31q6 0 17.5 -2t44 -19t61.5 -46q14 -13 24.5 -27t17.5 -26t12 -23
t7.5 -19.5t3.5 -15t2 -9.5v-3z" />
    <glyph glyph-name="uniE64B" unicode="&#xe64b;" 
d="M161 772h-39h-67v-82h67h39q6 0 11.5 1.5t10 5t8 8t5 10t1.5 10.5v12q0 9 -4.5 17.5t-13 13t-18.5 4.5zM161 591h-39h-67v-83h67h39q10 0 18.5 5t13 13t4.5 18v11q0 15 -10.5 25.5t-25.5 10.5zM161 409h-39h-67v-83h67h39q15 0 25.5 10.5t10.5 25.5v11q0 15 -10.5 25.5
t-25.5 10.5zM161 228h-39h-67v-83h67h39q15 0 25.5 10.5t10.5 25.5v11q0 15 -10.5 25.5t-25.5 10.5zM161 46h-39h-67v-83h67h39q10 0 18.5 5t13 13t4.5 18v11q0 15 -10.5 25.5t-25.5 10.5zM881 896h-671q-36 0 -61.5 -25.5t-26.5 -62.5h39q30 0 51 -21t21 -50v-12
q0 -29 -21 -50t-51 -21h-39v-27h39q20 0 36.5 -9.5t26 -26t9.5 -36.5v-11q0 -20 -9.5 -36.5t-26 -26t-36.5 -9.5h-39v-27h39q15 0 28.5 -5.5t23 -15t15 -23t5.5 -28.5v-11q0 -30 -21 -51t-51 -21h-39v-26h39q12 0 23 -4t20 -10.5t15.5 -15.5t10 -20t3.5 -22v-11
q0 -30 -21 -51t-51 -21h-39v-27h39q30 0 51 -21t21 -51v-11q0 -30 -21 -51t-51 -21h-31q3 -8 7.5 -15t10.5 -12.5t13 -10.5t15 -8.5t16.5 -5t17.5 -1.5h671q36 0 62 25.5t26 62.5v846q0 24 -12 44.5t-32 32t-44 11.5zM840 507h-567v82h567v-82zM840 676h-567v83h567v-83z
" />
    <glyph glyph-name="uniE64D" unicode="&#xe64d;" horiz-adv-x="1829" 
d="M914 896q-123 0 -239 -24.5t-205 -64.5t-167 -90.5t-132.5 -101.5t-94 -98.5t-58 -82t-18.5 -50.5t18.5 -50.5t58 -82t94 -98.5t132.5 -101.5t167 -90.5t205 -64.5t239 -24.5q370 0 660 213q144 106 222 226q33 51 33 73q0 14 -15 42t-43.5 67.5t-73.5 83.5t-100.5 89
t-129.5 86.5t-156.5 73.5t-185.5 51t-211 19zM914 -10q-37 0 -73 6.5t-68.5 18.5t-63 29t-57 39t-49 47.5t-40 55t-30 61t-19 66.5t-6.5 71q0 80 32 153t86.5 125.5t130 84t157.5 31.5q67 0 129 -20t111.5 -56.5t87.5 -85t58.5 -108.5t20.5 -124q0 -154 -108 -267
q-105 -111 -260 -125q-20 -2 -39 -2zM914 384q-7 8 -8 23.5t2.5 33.5t9 37.5t10.5 37.5t6.5 33t-3 23.5t-17.5 8.5q-55 0 -102 -26.5t-74 -72t-27 -98.5q0 -82 59.5 -139.5t143.5 -57.5q33 0 64 10t56 28t44 42.5t29 54.5t10 62q0 14 -18 16t-44 -4.5t-55.5 -12.5t-52 -8
t-33.5 9z" />
    <glyph glyph-name="uniE64E" unicode="&#xe64e;" 
d="M505 896q-104 -1 -198.5 -43t-162 -111.5t-106.5 -165t-38 -199.5t43 -198.5t111.5 -162t165 -106.5t199.5 -38t198.5 43t162 111.5t106.5 165t38 199.5q-3 212 -155 360t-364 145zM504 72h-3q-33 1 -53.5 22.5t-19.5 54.5q0 20 10 37t27 26t38 9h2q34 -1 54.5 -22.5
t19.5 -54.5q-1 -15 -6.5 -28.5t-15.5 -23t-23.5 -15t-29.5 -5.5zM687 436q-11 -16 -61 -55l-32 -21q-12 -10 -20 -19.5t-11 -19.5q-5 -14 -5 -32v-5h-119v10q1 26 2 38t5.5 25.5t12.5 22.5q27 32 89 72q6 5 11.5 10.5t9.5 11.5q18 25 18 44q0 28 -16 51q-16 22 -59 22
t-60 -28q-9 -14 -13.5 -29t-4.5 -30v-5h-123v5q5 114 80 161q47 31 116 31q44 0 81.5 -11t67.5 -32q60 -44 60 -129q0 -47 -29 -88z" />
    <glyph glyph-name="uniE64F" unicode="&#xe64f;" 
d="M512 896q-188 0 -332 -122q-136 -116 -171 -292q-9 -49 -9 -98q0 -104 40.5 -199t109 -163.5t163.5 -109t199 -40.5t199 40.5t163.5 109t109 163.5t40.5 199t-40.5 199t-109 163.5t-163.5 109t-199 40.5zM580 92h-136v116h136v-116zM580 305h-136v371h136v-371z" />
    <glyph glyph-name="uniE650" unicode="&#xe650;" 
d="M512 896q-104 0 -199 -40.5t-163.5 -109t-109 -163.5t-40.5 -199t40.5 -198.5t109 -163t163.5 -109t199 -40.5t198.5 40.5t163 109t109 163t40.5 198.5q0 70 -18 136.5t-51 122.5t-80.5 103t-103.5 80t-122.5 51.5t-135.5 18.5zM122 384q0 64 20 123.5t56 107t83.5 83.5
t107 56t123.5 20q66 0 127 -21.5t112 -61.5l-546 -546q-40 51 -61.5 112t-21.5 127zM512 -5q-133 0 -239 82l546 546q39 -51 60.5 -112t21.5 -127q0 -39 -8 -78t-22.5 -73.5t-36 -66t-47.5 -57.5t-57.5 -47.5t-66 -36t-73.5 -22.5t-78 -8z" />
    <glyph glyph-name="uniE651" unicode="&#xe651;" horiz-adv-x="1025" 
d="M417 896h190v-1024h-190v1024zM0 479h1024v-190h-1024v190z" />
    <glyph glyph-name="uniE652" unicode="&#xe652;" horiz-adv-x="1072" 
d="M436 -128l-435 356l118 145l278 -227l519 750l155 -107z" />
    <glyph glyph-name="uniE653" unicode="&#xe653;" 
d="M512 896q-104 0 -199 -40.5t-163.5 -109t-109 -163.5t-40.5 -199t40.5 -199t109 -163.5t163.5 -109t199 -40.5q83 0 161.5 26t141.5 73t110 110t73 141.5t26 161.5q0 104 -40.5 199t-109 163.5t-163.5 109t-199 40.5zM617 384l187 -187l-105 -105l-187 187l-187 -187
l-105 105l187 187l-187 186l105 106l187 -187l187 187l105 -105z" />
    <glyph glyph-name="uniE654" unicode="&#xe654;" 
d="M869 794h-46v-102h-163v102h-296v-102h-163v102h-46q-42 0 -72 -30t-30 -72v-714q0 -42 30 -72t72 -30h714q42 0 72 30t30 72v714q0 21 -8 39.5t-21.5 32.5t-32.5 22t-40 8zM890 -32h-755v585h755v-585zM318 896h-71v-173h71v173zM777 896h-71v-173h71v173zM512 336h256
v-257h-256v257z" />
    <glyph glyph-name="uniE655" unicode="&#xe655;" horiz-adv-x="1230" 
d="M0 462l261 -590h959l-260 590h-960zM885 896l-93 -166h-615v-185h876l177 -664v1015h-345z" />
    <glyph glyph-name="uniE656" unicode="&#xe656;" horiz-adv-x="1061" 
d="M0 -128l1060 3v592h-1060v-595zM713 896l-94 -167h-619v-181h1060v348h-347z" />
    <glyph glyph-name="uniE657" unicode="&#xe657;" 
d="M608 572h314v2l-314 321v-323zM541 504v392h-439v-90v-844v-90h820v90v542h-381z" />
    <glyph glyph-name="uniE658" unicode="&#xe658;" horiz-adv-x="1565" 
d="M1207 597q-39 0 -80 -9q-37 134 -148.5 221t-255.5 87q-85 0 -162.5 -33t-133.5 -89t-89 -134t-33 -163q0 -11 0.5 -23t1.5 -24q-7 1 -14 1h-13q-116 0 -198 -82t-82 -197.5t82 -197.5t198 -82h926q98 0 180.5 50t130.5 134.5t48 181.5q0 98 -48 180.5t-130.5 130.5
t-179.5 48z" />
    <glyph glyph-name="uniE659" unicode="&#xe659;" horiz-adv-x="1565" 
d="M1206 597q-39 0 -79 -9q-37 134 -148.5 221t-255.5 87q-113 0 -209.5 -56t-152.5 -152.5t-56 -210.5q0 -22 2 -47q-14 1 -27 1q-116 0 -198 -82t-82 -197.5t82 -197.5t198 -82h394v302h-177l285 339l286 -339h-177v-302h315q98 0 180.5 50t130.5 134.5t48 181.5
q0 42 -9.5 82.5t-27 75.5t-42 66.5t-56 55.5t-66.5 42t-75.5 27.5t-82.5 9.5z" />
    <glyph glyph-name="uniE65C" unicode="&#xe65c;" horiz-adv-x="1025" 
d="M1023 358q1 6 1 12v14q0 125 -58 236q-65 125 -186.5 200.5t-267.5 75.5v0q-126 0 -235.5 -57t-180.5 -156t-90 -221q-2 -10 -3 -22v-2v-2q-3 -26 -3 -52q0 -126 59 -238q42 -81 110.5 -143t157 -96.5t185.5 -34.5q13 0 26 1q97 5 184.5 44.5t152 104t104 152t44.5 184.5
zM900 349q0 -4 -0.5 -7.5t-1 -7.5t-1 -7.5t-1.5 -7.5v-1v-2q-17 -94 -76 -170l-239 238l239 238q59 -76 76 -170v-2v-2q3 -14 4 -29v-3v-2q2 -16 2 -30t-2 -31v-1v-3zM577 0q-15 -3 -29 -4h-3h-3q-16 -2 -30 -2t-31 2h-1h-3q-8 1 -15 2t-15 2h-1h-2q-94 17 -170 76l239 239
l238 -238q-76 -60 -171 -77h-2h-1zM128 319q-1 7 -2 14.5t-2 15.5v2v3q-2 16 -2 30t2 31v3v1q1 15 4 30v3q17 95 77 171l239 -239l-239 -239q-60 76 -77 171v2v1zM447 768q15 3 30 4h2h3q2 0 4.5 0.5t5.5 0.5h4h6q2 0 4.5 0.5t5.5 0.5t6 -0.5t6 -0.5h6q4 0 7 -0.5t6 -0.5h2
h2q8 -1 15.5 -2t14.5 -2h3q95 -17 171 -77l-238 -238l-239 239q76 59 170 76h3z" />
    <glyph glyph-name="uniE65D" unicode="&#xe65d;" 
d="M685 497v305h-144h-58h-144v-305l-122 -115v-87h266h58h266v87zM235 896h554v-63h-554v63zM512 -126l-84 388h168z" />
    <glyph glyph-name="uniE65E" unicode="&#xe65e;" horiz-adv-x="1026" 
d="M607 260l-10 4q-5 2 -10 3.5t-10 3.5q-3 1 -8.5 4t-12.5 11.5t-11 18.5t-2 26.5t13 35.5q24 25 45 57t36.5 68t24 76.5t8.5 78.5q0 79 -32.5 136.5t-85 85t-117 27.5t-116.5 -27.5t-84.5 -85t-32.5 -136.5q0 -77 32 -153t83 -128q7 -19 7 -35.5t-4 -26t-11.5 -17.5
t-12.5 -11.5t-9 -4.5q-66 -27 -120.5 -60t-83 -58.5t-50 -52.5t-26.5 -36t-7 -14v-178h401l68 249zM860 219l-39 39h1l-52 51l-235 -232q-2 -2 -4 -4.5t-3 -5.5l-55 -195l199 50q3 1 5.5 2.5t4.5 4.5l235 233l-57 57v0zM537 -68q0 1 0.5 3t2.5 8.5t3.5 13t3.5 15.5t4 17
t4.5 16.5t4 15.5t3 12.5t1.5 8.5q14 -6 28 -17t23.5 -22t17 -21.5t11.5 -16.5t4 -7zM791 333l148 -147l33 31l-147 148zM1011 335l-70 71q-15 14 -35.5 14.5t-35.5 -14.5l-21 -22l141 -141l22 22q14 14 14 34.5t-15 35.5zM1011 335z" />
    <glyph glyph-name="uniE65F" unicode="&#xe65f;" horiz-adv-x="1565" 
d="M1207 597q-40 0 -80 -9q-24 88 -82.5 158t-142.5 110t-179 40q-113 0 -209.5 -56t-152.5 -152.5t-56 -210.5v-9v-10q0 -5 1 -10v-8q1 -5 1 -10q-14 1 -27 1q-116 0 -198 -82t-82 -197.5t82 -197.5t198 -82h502l-285 339h177v302h217v-302h177l-286 -339h424q97 0 180 50
t131 134.5t48 182t-48 180t-130.5 130.5t-179.5 48z" />
    <glyph glyph-name="uniE660" unicode="&#xe660;" 
d="M860 485h158v281l-87 -83q-71 99 -179.5 156t-234.5 57q-188 0 -332 -122q-136 -117 -170 -292q-9 -49 -9 -97q0 -104 40.5 -199t109 -163.5t163 -109t198.5 -40.5q121 0 227.5 53.5t177.5 146.5t95 208h-158q-33 -112 -127.5 -183.5t-214.5 -71.5q-97 0 -179.5 48
t-130.5 130.5t-48 180t48 180t130.5 130.5t179.5 48q62 0 120 -21t104 -58t78 -88l-96 -91h137z" />
    <glyph glyph-name="uniE661" unicode="&#xe661;" horiz-adv-x="1281" 
d="M1281 384l-513 512v-296l-76 -4q-252 -24 -429 -156q-224 -169 -263 -483q2 4 6.5 11t21.5 29t38.5 41t57.5 47.5t78 48t101.5 42.5t127 31.5t154 14.5t183.5 -9v-341z" />
    <glyph glyph-name="uniE662" unicode="&#xe662;" 
d="M511 896q-104 0 -198.5 -40.5t-163 -109t-109 -163t-40.5 -198.5q0 -83 26 -161t73 -141t110 -110.5t141 -73t161 -25.5t161 25.5t141 73t110.5 110.5t73 141t25.5 161q0 104 -40.5 198.5t-109 163t-163 109t-198.5 40.5zM511 -2q-53 0 -103 13.5t-92.5 38.5t-78.5 61
t-60.5 78.5t-38.5 92.5t-14 103q0 105 51.5 194.5t141 141t194.5 51.5q79 0 150.5 -30.5t123.5 -82.5t82.5 -123.5t30.5 -150.5q0 -105 -51.5 -194.5t-141 -141t-194.5 -51.5zM236 432h550v-97h-550v97z" />
    <glyph glyph-name="uniE663" unicode="&#xe663;" 
d="M512 896q-139 0 -257 -68.5t-186.5 -186.5t-68.5 -257t68.5 -257t186.5 -186.5t257 -68.5t257 68.5t186.5 186.5t68.5 257t-68.5 257t-186.5 186.5t-257 68.5zM512 -4q-105 0 -194.5 52t-141.5 141.5t-52 194.5t52 194.5t141.5 141.5t194.5 52q63 0 122.5 -19.5
t107 -55.5t83.5 -83.5t55.5 -107t19.5 -122.5q0 -153 -104 -265q-102 -109 -251 -122q-17 -1 -33 -1zM237 431h550v-97h-550v97zM463 658h98v-550h-98v550z" />
    <glyph glyph-name="uniE665" unicode="&#xe665;" 
d="M873 235l150 149l-150 150v212h-212l-149 150l-150 -150h-212v-212l-150 -150l150 -149v-212h212l150 -150l149 150h212v212z" />
    <glyph glyph-name="uniE666" unicode="&#xe666;" 
d="M505 896q-106 0 -181.5 -75t-75.5 -182v-180h105v180q0 63 44.5 108t107.5 45q31 0 59 -12t48.5 -32.5t32.5 -49t12 -59.5v-180h105v180q0 112 -83 188q-74 69 -174 69zM811 429h-598q-34 0 -58 -24.5t-24 -58.5v-391q0 -34 24 -58.5t58 -24.5h598q13 0 25.5 4.5t23 12
t18 17.5t11.5 22.5t4 26.5v391q0 23 -11 42t-30 30t-41 11zM678 114h-82q-2 -5 -5 -10t-6.5 -9.5t-8 -9t-9 -8t-9.5 -6.5t-10.5 -5t-11 -3.5t-12 -2.5t-12.5 -1q-19 0 -35.5 7t-29 19.5t-19.5 28.5h-82v73h82q10 25 33 40t51 15q11 0 22 -2.5t20 -7.5t17 -12t14.5 -15.5
t10.5 -17.5h82v-73z" />
    <glyph glyph-name="uniE667" unicode="&#xe667;" horiz-adv-x="1055" 
d="M257 896q-106 0 -181.5 -75.5t-75.5 -181.5v-180h104v180q0 63 45 108t108 45q31 0 59 -12.5t48.5 -32.5t32.5 -48.5t12 -59.5v-180h104v180q0 106 -75 181.5t-181 75.5zM972 429h-598q-23 0 -42 -11.5t-30 -30t-11 -41.5v-392q0 -22 11 -41t30 -30t42 -11h598
q22 0 41 11t30 30t11 41v392q0 17 -6.5 32t-17.5 26t-26.5 18t-31.5 7zM838 114h-81q-7 -16 -19.5 -28.5t-29.5 -19.5t-35 -7q-28 0 -51 15t-34 40h-81v72h81q11 25 34 40.5t51 15.5q11 0 21.5 -2.5t20 -7.5t17.5 -12t14.5 -15.5t10.5 -18.5h81v-72z" />
    <glyph glyph-name="uniE668" unicode="&#xe668;" 
d="M171 347q-21 133 56 245q59 85 155 122q54 22 112 23.5t110 -15t95 -47.5l-73 -118l326 2l-117 337l-59 -96q-97 62 -214.5 76.5t-232.5 -27.5q-102 -40 -175.5 -118.5t-106.5 -178.5t-21 -205h145zM853 431q18 -116 -40.5 -220t-170.5 -147q-78 -30 -157 -21.5
t-146 50.5l66 106l-350 20l148 -347l62 100q96 -62 206 -74t224 31q102 40 175.5 118.5t106.5 178.5t21 205h-145z" />
    <glyph glyph-name="uniE669" unicode="&#xe669;" 
d="M661 271q-4 1 -9.5 4.5t-12.5 11.5t-11 17.5t-4 26t7 35.5q51 52 83 128t32 153q0 118 -67 183.5t-167 65.5q-64 0 -116.5 -27.5t-85 -85t-32.5 -136.5q0 -51 15 -104.5t41 -98t59 -78.5q7 -19 7 -35.5t-4 -26t-11 -17.5t-12.5 -11.5t-9.5 -4.5q-189 -75 -269 -190
q-13 -19 -18 -31v-178h436h436v178l-18 31q-80 115 -269 190z" />
    <glyph glyph-name="uniE66A" unicode="&#xe66a;" horiz-adv-x="1025" 
d="M894 376l130 55l-39 166l-146 -16q-11 19 -23.5 36t-27.5 32l54 131l-146 90l-90 -113q-48 12 -97 12l-57 127l-165 -44l19 -141q-34 -21 -62 -48l-126 52l-90 -146l108 -87q-12 -46 -13 -92l-123 -51l40 -166l137 14q8 -14 17 -26.5t18.5 -24.5t20.5 -23l-51 -123
l146 -90l87 109q46 -12 91 -12l52 -125l166 40l-15 141q40 25 70 54l127 -52l90 145l-113 91q11 43 11 85zM512 135q-103 0 -175.5 73t-72.5 176t72.5 176t175.5 73q67 0 124.5 -33t90.5 -90.5t33 -125.5q0 -41 -12.5 -79t-35.5 -68.5t-53.5 -53.5t-68.5 -35.5t-78 -12.5z
M512 507q-33 0 -61.5 -16.5t-45 -45t-16.5 -61.5q0 -51 36 -87t87 -36t87 36t36 87t-36 87t-87 36z" />
    <glyph glyph-name="uniE66B" unicode="&#xe66b;" 
d="M837 605q0 -88 -40.5 -162.5t-108.5 -129.5q-3 -2 -10 -8q-24 -19 -38 -31.5t-34 -35.5t-30 -50t-10 -58v-47h-141v68q0 61 30 118q6 11 15.5 23t23.5 25.5t26 24t30.5 27t29.5 26.5q54 47 74.5 98t20.5 98q0 88 -41 132t-115 44q-25 0 -47.5 -6.5t-42 -19t-36.5 -31.5
q-50 -58 -50 -187h-156q6 190 101 281.5t231 91.5q149 0 233.5 -81.5t84.5 -209.5zM423 6h143v-132h-143v132z" />
    <glyph glyph-name="uniE66C" unicode="&#xe66c;" 
d="M446 896h127v-522h-127v522zM674 815v-127q45 -23 83 -57t65.5 -76t42.5 -93t15 -104q0 -100 -49 -185t-134 -134t-185 -49t-185 49t-134 134t-49 185q0 107 56.5 195.5t149.5 134.5v127q-143 -50 -233.5 -175.5t-90.5 -281.5q0 -99 38.5 -189t103.5 -155t155 -103.5
t189 -38.5q79 0 153 24.5t134 69.5t105 104.5t69.5 133.5t24.5 154q0 156 -90.5 281.5t-233.5 175.5z" />
  </font>
</defs>
</svg>
